PathFileType	4	(X/Y/Z)	./resultDataOpenSim/trcMotMarkerGrf/sub10/qtm-14-06.trc
DataRate	CameraRate	NumFrames	NumMarkers	Units	OrigDataRate	OrigDataStartFrame	OrigNumFrames
250.000000	250.000000	12	24	m	250.000000	306	488
Frame#	Time	L.Toe.Tip			R.Toe.Tip			L.Ankle.Lat			R.Ankle.Lat			L.Ankle.Med			R.Ankle.Med			L.Heel			R.Heel			L.Knee.Lat			R.Knee.Lat			L.Knee.Med			R.Knee.Med			L.Thigh.Upper			R.Thigh.Upper			L.ASIS			R.ASIS			V.Sacral			L.Acromium			R.Acromium			C7			L.Elbow			R.Elbow			L.Wrist.Lat			R.Wrist.Lat
		X1	Y1	Z1	X2	Y2	Z2	X3	Y3	Z3	X4	Y4	Z4	X5	Y5	Z5	X6	Y6	Z6	X7	Y7	Z7	X8	Y8	Z8	X9	Y9	Z9	X10	Y10	Z10	X11	Y11	Z11	X12	Y12	Z12	X13	Y13	Z13	X14	Y14	Z14	X15	Y15	Z15	X16	Y16	Z16	X17	Y17	Z17	X18	Y18	Z18	X19	Y19	Z19	X20	Y20	Z20	X21	Y21	Z21	X22	Y22	Z22	X23	Y23	Z23	X24	Y24	Z24

306	1.22	0.15869883	0.035565834	-0.14916522	0.95120969	0.039095662	-0.060584781	0.16645454	0.17914436	-0.18694887	0.80931554	0.055018747	-0.018690246	0.20934919	0.17149047	-0.11410275	0.82851541	0.080511563	-0.10372577	0.13664598	0.22754321	-0.13058726	0.75691739	0.032280074	-0.062680915	0.48697171	0.38283622	-0.24093512	0.88117368	0.44040436	0.014345006	0.51534785	0.33574941	-0.13097818	0.88771223	0.45889287	-0.11304695	0.58142285	0.74928468	-0.25391513	0.7143558	0.79711176	0.11612849	0.67559682	0.84871781	-0.20637589	0.74961519	0.87753441	0.016645304	0.52180215	0.89255142	-0.034490505	0.67801164	1.367471	-0.18812593	0.63567111	1.3612261	0.095403639	0.59284502	1.3790245	-0.055479649	0.62871334	1.1425369	-0.4449965	0.43265719	1.126358	0.23319493	0.83697231	1.1767521	-0.59097515	0.36598139	1.1375358	0.4745628
307	1.224	0.16495843	0.041560268	-0.15062317	0.9512848	0.03904797	-0.060525724	0.17413309	0.18514539	-0.18740123	0.80941275	0.055043112	-0.01874019	0.21683782	0.17659986	-0.11450031	0.8287916	0.080474684	-0.10377719	0.1446572	0.2336493	-0.1306557	0.75696698	0.032452563	-0.062786589	0.4979721	0.38255549	-0.24262812	0.88385936	0.43955628	0.014209547	0.52556369	0.33575306	-0.13170283	0.89108379	0.45789436	-0.11295871	0.58804	0.74972463	-0.2533375	0.71917337	0.79702741	0.11664029	0.68154583	0.84969725	-0.20621448	0.75522515	0.8781065	0.017777421	0.52718538	0.89244991	-0.034272456	0.68421084	1.3679368	-0.18788043	0.64206345	1.3617757	0.095815816	0.59877191	1.3799523	-0.055042277	0.63413966	1.1410942	-0.44325378	0.44099994	1.1244197	0.232784	0.84211494	1.1729586	-0.58990854	0.3733367	1.1322029	0.47382704
308	1.228	0.17154117	0.047598563	-0.15197687	0.95135778	0.039003369	-0.060474018	0.18202931	0.19114318	-0.18783373	0.80949547	0.055072851	-0.018791182	0.22452003	0.18178704	-0.11488045	0.8290458	0.080444137	-0.10383087	0.15283938	0.23975999	-0.13080177	0.75701516	0.03261929	-0.062889509	0.50820097	0.38270657	-0.24392201	0.88669347	0.43882631	0.01416557	0.53585172	0.33592483	-0.13264698	0.89414245	0.45699224	-0.11295544	0.59464038	0.75025986	-0.2527309	0.72382136	0.79699295	0.11710797	0.68741563	0.8507963	-0.20607228	0.76074354	0.87872241	0.018977314	0.53250378	0.89246299	-0.034017021	0.69032333	1.36846	-0.18763408	0.64841692	1.3623582	0.096182857	0.60462921	1.3808982	-0.05463023	0.63947744	1.1396223	-0.44143818	0.44936553	1.1225261	0.23235933	0.84718169	1.1690448	-0.58878307	0.38079569	1.1268318	0.47305698
309	1.232	0.1784244	0.05366744	-0.15331364	0.95142495	0.038964085	-0.06042802	0.1901311	0.19711261	-0.18826153	0.80956788	0.055109509	-0.018837847	0.23239985	0.18702804	-0.11526741	0.82928012	0.080420491	-0.10388534	0.16120979	0.24586817	-0.13102594	0.75705863	0.032780251	-0.06298942	0.51670147	0.38379531	-0.24419093	0.88968327	0.43821756	0.014232903	0.54620185	0.33619326	-0.13371439	0.89693139	0.45617217	-0.11304169	0.60120482	0.75090502	-0.25214619	0.72832566	0.79703728	0.11754753	0.69321013	0.85200275	-0.20594684	0.76618798	0.87939108	0.020237199	0.53777418	0.89264367	-0.033776015	0.69634237	1.3690503	-0.1874017	0.65472253	1.3629786	0.096508793	0.61042546	1.3818651	-0.054291074	0.64469791	1.1381729	-0.43957202	0.45775178	1.1206854	0.23191187	0.85215586	1.1650483	-0.58760247	0.38835323	1.1214408	0.47224547
310	1.236	0.1855762	0.059748394	-0.15466559	0.95148313	0.038929094	-0.060386126	0.19845835	0.20303407	-0.18872266	0.80963809	0.055151504	-0.018878723	0.24048361	0.19229365	-0.11568901	0.82949957	0.080403212	-0.10394056	0.16979074	0.25196214	-0.13132604	0.75709473	0.032936632	-0.063087455	0.52328455	0.38608544	-0.24311962	0.89276283	0.43770781	0.014363366	0.55661211	0.33650375	-0.13484506	0.89946375	0.45542878	-0.11316538	0.60773351	0.7516703	-0.25160043	0.73273873	0.79718745	0.11798766	0.69893229	0.85330224	-0.2058389	0.77157218	0.88011601	0.021545204	0.54302149	0.8930281	-0.033587925	0.70227434	1.3697098	-0.18719048	0.66097402	1.36364	0.096805619	0.61616421	1.3828519	-0.054016345	0.64977812	1.1368036	-0.43767602	0.46615725	1.1189016	0.23143039	0.85701709	1.1610216	-0.58636217	0.39601315	1.1160439	0.4713886
311	1.24	0.19296895	0.065808367	-0.15600125	0.95153134	0.038895495	-0.060346966	0.20702622	0.20889655	-0.18924141	0.80970892	0.055196149	-0.018913639	0.24877638	0.1975538	-0.11616052	0.82970564	0.080391745	-0.10399509	0.17860094	0.25802611	-0.13169712	0.7571212	0.033089162	-0.06318214	0.52923557	0.38907218	-0.24134382	0.89581993	0.43724965	0.014465758	0.56708276	0.33684383	-0.13601895	0.90173821	0.45477389	-0.11325672	0.61423865	0.75255391	-0.25109803	0.73709717	0.79745914	0.11844257	0.70458769	0.85467551	-0.20575225	0.77689463	0.88089124	0.022876801	0.54826802	0.89363155	-0.033469252	0.70813176	1.3704354	-0.18699908	0.66716903	1.3643454	0.097088118	0.6218406	1.3838572	-0.053773702	0.65470632	1.1355448	-0.43576748	0.47457631	1.1171772	0.23090487	0.86177386	1.157003	-0.58504337	0.40378294	1.1106512	0.47048332
312	1.244	0.20059891	0.071818417	-0.15729346	0.95157016	0.038862269	-0.06030903	0.21582849	0.21469164	-0.18982076	0.80977646	0.05524034	-0.018941919	0.25728359	0.20278035	-0.11667782	0.8298961	0.080386499	-0.10404407	0.18764714	0.26404194	-0.13213115	0.75713764	0.03323899	-0.063268947	0.53637023	0.39173065	-0.24010475	0.89876039	0.43679984	0.014483483	0.5776161	0.33722885	-0.13720898	0.90380879	0.45419965	-0.11328942	0.62073122	0.75353423	-0.25065121	0.74140709	0.797855	0.11890664	0.71019231	0.85609655	-0.20568822	0.78214951	0.88171355	0.024204385	0.55352855	0.89445122	-0.033421259	0.71392141	1.3712239	-0.18682582	0.67330021	1.3650988	0.097365982	0.62744323	1.3848825	-0.053546357	0.65948097	1.1343997	-0.43385536	0.48299742	1.11552	0.23032633	0.86645501	1.1529866	-0.58363259	0.41166283	1.105271	0.46952451
313	1.248	0.20846234	0.077762411	-0.15854786	0.95160077	0.038831116	-0.060270381	0.22484757	0.22040529	-0.19045356	0.80983752	0.055281062	-0.01896313	0.26601469	0.20794622	-0.11722654	0.83007009	0.080389498	-0.10408069	0.19692756	0.26999147	-0.13262209	0.75714748	0.033388724	-0.063344339	0.5454444	0.39344178	-0.24011253	0.90158724	0.4363636	0.014449665	0.58821018	0.33768204	-0.13834315	0.90578741	0.4536619	-0.11330701	0.62720783	0.75457594	-0.25028466	0.74566359	0.79836929	0.11937042	0.71576714	0.85754255	-0.20564003	0.78734015	0.88259094	0.025511832	0.55881045	0.89546595	-0.033445585	0.71964294	1.3720742	-0.18667617	0.67935018	1.365904	0.097639898	0.63296719	1.3859365	-0.053337481	0.66410978	1.1333636	-0.43194012	0.49140621	1.113942	0.22969013	0.87107764	1.1489286	-0.58212954	0.41964318	1.0999103	0.46850577
314	1.252	0.21652699	0.083624436	-0.1597676	0.95162582	0.038803428	-0.060229272	0.23406668	0.22601697	-0.19113324	0.80989524	0.055317714	-0.018977456	0.27497626	0.21302451	-0.11779235	0.83023128	0.080403378	-0.10409999	0.20644609	0.27585938	-0.13317543	0.75715602	0.033542327	-0.063407533	0.55590761	0.39439394	-0.24110389	0.90437389	0.43598499	0.014433696	0.59885788	0.33822496	-0.13933111	0.90775034	0.45312306	-0.11335519	0.6336508	0.755651	-0.25001954	0.74986625	0.79899135	0.11982849	0.72131677	0.85901298	-0.20559355	0.79247491	0.88353551	0.026793674	0.56410638	0.8966344	-0.033552362	0.72529321	1.372987	-0.18656014	0.68530316	1.3667628	0.097907207	0.63842488	1.3870357	-0.053151887	0.66860778	1.1324371	-0.43001156	0.49978503	1.1124535	0.22900167	0.8756117	1.14481	-0.58053824	0.42771266	1.0945775	0.46742146
315	1.256	0.22475099	0.089384029	-0.16094141	0.95164975	0.038778549	-0.060185158	0.24347623	0.23150657	-0.19186202	0.80995587	0.055353617	-0.018984507	0.28415286	0.21799599	-0.11836674	0.83038662	0.080429784	-0.10410185	0.21621526	0.28163157	-0.13380999	0.7571671	0.033703334	-0.063459508	0.56681488	0.39513016	-0.24241012	0.90712837	0.43567404	0.01444389	0.60955781	0.33887065	-0.14016451	0.90968363	0.45258704	-0.11341352	0.64004679	0.75675319	-0.24985208	0.75402407	0.79970918	0.12027729	0.72682213	0.86053073	-0.20553842	0.79755497	0.88455282	0.028043229	0.5693903	0.89790753	-0.033749159	0.73086907	1.3739646	-0.18648556	0.69115995	1.3676783	0.098170136	0.64383756	1.3881953	-0.052984103	0.67298898	1.1316201	-0.42805115	0.50810922	1.1110636	0.22827252	0.87995154	1.1406675	-0.57887794	0.43586658	1.0892829	0.46626835
316	1.26	0.23311374	0.095021445	-0.16206328	0.95167651	0.038755706	-0.060139495	0.25307746	0.23685822	-0.19265147	0.81002226	0.055393908	-0.018983523	0.29349987	0.22286082	-0.11895234	0.8305429	0.080469109	-0.1040914	0.22623547	0.28728929	-0.13454583	0.75718257	0.033872313	-0.063503667	0.57751812	0.39604983	-0.24354901	0.90975032	0.43539162	0.014421251	0.62031114	0.33961942	-0.14095635	0.91153707	0.45207695	-0.11342871	0.64640251	0.75789522	-0.24975133	0.75815583	0.80051332	0.12071462	0.73226717	0.8621145	-0.20547635	0.80257467	0.88564191	0.029246922	0.57463204	0.8992509	-0.034024205	0.73636609	1.3750089	-0.18645529	0.69693769	1.3686588	0.098436556	0.64921608	1.3894196	-0.052822087	0.67725994	1.1309026	-0.42605913	0.51635625	1.1097801	0.22750912	0.88398073	1.1365347	-0.5771925	0.44410683	1.0840346	0.46504562
317	1.264	0.24161461	0.10052069	-0.1631399	0.95170683	0.038735838	-0.060095355	0.26288136	0.24205558	-0.19351846	0.81009118	0.055441764	-0.01897543	0.30296731	0.22763282	-0.11956211	0.83070325	0.080520822	-0.10407634	0.23648252	0.29280928	-0.13539318	0.7572027	0.034047247	-0.063546566	0.58781418	0.39728012	-0.24438089	0.91216674	0.43513112	0.014335603	0.63110402	0.3404686	-0.14181668	0.91329185	0.45160382	-0.11337785	0.65273878	0.75909857	-0.24968086	0.76228321	0.80139831	0.12113958	0.73766409	0.86375935	-0.20541371	0.80753127	0.88680197	0.030387607	0.57981671	0.90065221	-0.034343908	0.74177776	1.3761204	-0.18646591	0.70265527	1.3697129	0.098713532	0.65455806	1.3907042	-0.052656897	0.68142729	1.1302748	-0.42406546	0.52452163	1.1086048	0.2267063	0.88771998	1.1323905	-0.57551272	0.45243757	1.078838	0.46375261
